<svg xmlns="http://www.w3.org/2000/svg" viewBox="0 0 24 24" fill="white" width="32px" height="32px">
  <path d="M22.225 0H1.771C.792 0 0 .774 0 1.729V22.27C0 23.226.792 24 1.771 24h20.454c.98 0 1.771-.774 1.771-1.729V1.729C24 .774 23.205 0 22.225 0zM7.092 20.451H3.558V9h3.534v11.451zM5.325 7.476c-1.108 0-2.007-.908-2.007-2.026 0-1.119.9-2.026 2.007-2.026 1.109 0 2.008.907 2.008 2.026 0 1.118-.899 2.026-2.008 2.026zM20.451 20.451h-3.534v-5.762c0-1.373-.027-3.141-1.912-3.141-1.912 0-2.207 1.494-2.207 3.038v5.865h-3.534V9h3.395v1.561h.049c.472-.896 1.628-1.84 3.355-1.84 3.59 0 4.252 2.363 4.252 5.433v6.297z"/>
</svg>
